<svg width="17" height="17" viewBox="0 0 17 17" fill="none" xmlns="http://www.w3.org/2000/svg">
<path d="M8.24784 4.01697C5.90532 4.01697 4.0148 5.9075 4.0148 8.25002C4.0148 10.5925 5.90532 12.4831 8.24784 12.4831C10.5904 12.4831 12.4809 10.5925 12.4809 8.25002C12.4809 5.9075 10.5904 4.01697 8.24784 4.01697ZM8.24784 11.0012C6.73295 11.0012 5.49667 9.76492 5.49667 8.25002C5.49667 6.73512 6.73295 5.49885 8.24784 5.49885C9.76274 5.49885 10.999 6.73512 10.999 8.25002C10.999 9.76492 9.76274 11.0012 8.24784 11.0012ZM12.6543 2.85707C12.1073 2.85707 11.6657 3.29874 11.6657 3.84567C11.6657 4.3926 12.1073 4.83428 12.6543 4.83428C13.2012 4.83428 13.6429 4.39467 13.6429 3.84567C13.643 3.7158 13.6176 3.58717 13.5679 3.46716C13.5183 3.34714 13.4455 3.23809 13.3537 3.14626C13.2618 3.05443 13.1528 2.98161 13.0328 2.93199C12.9128 2.88236 12.7841 2.8569 12.6543 2.85707ZM16.4993 8.25002C16.4993 7.11075 16.5096 5.9818 16.4456 4.8446C16.3817 3.5237 16.0803 2.35141 15.1144 1.38551C14.1465 0.417543 12.9762 0.118279 11.6553 0.054298C10.5161 -0.00968272 9.38711 0.000636782 8.24991 0.000636782C7.11064 0.000636782 5.98169 -0.00968272 4.84448 0.054298C3.52359 0.118279 2.3513 0.419607 1.3854 1.38551C0.417429 2.35348 0.118164 3.5237 0.0541836 4.8446C-0.00979716 5.98387 0.000522341 7.11282 0.000522341 8.25002C0.000522341 9.38723 -0.00979716 10.5182 0.0541836 11.6554C0.118164 12.9763 0.419493 14.1486 1.3854 15.1145C2.35336 16.0825 3.52359 16.3818 4.84448 16.4457C5.98375 16.5097 7.1127 16.4994 8.24991 16.4994C9.38918 16.4994 10.5181 16.5097 11.6553 16.4457C12.9762 16.3818 14.1485 16.0804 15.1144 15.1145C16.0824 14.1466 16.3817 12.9763 16.4456 11.6554C16.5117 10.5182 16.4993 9.38929 16.4993 8.25002ZM14.6831 13.1167C14.5324 13.4923 14.3508 13.773 14.0598 14.0619C13.7688 14.353 13.4901 14.5346 13.1145 14.6852C12.0289 15.1166 9.45109 15.0196 8.24784 15.0196C7.04459 15.0196 4.46473 15.1166 3.37912 14.6873C3.00349 14.5366 2.7228 14.355 2.43385 14.064C2.14284 13.773 1.96122 13.4944 1.81056 13.1188C1.38127 12.0311 1.47827 9.45327 1.47827 8.25002C1.47827 7.04677 1.38127 4.4669 1.81056 3.3813C1.96122 3.00567 2.14284 2.72498 2.43385 2.43603C2.72486 2.14709 3.00349 1.9634 3.37912 1.81274C4.46473 1.38345 7.04459 1.48045 8.24784 1.48045C9.45109 1.48045 12.031 1.38345 13.1166 1.81274C13.4922 1.9634 13.7729 2.14502 14.0618 2.43603C14.3528 2.72704 14.5345 3.00567 14.6851 3.3813C15.1144 4.4669 15.0174 7.04677 15.0174 8.25002C15.0174 9.45327 15.1144 12.0311 14.6831 13.1167Z" fill="#1D1D20"/>
</svg>
