<svg width="18" height="18" viewBox="0 0 18 18" fill="none" xmlns="http://www.w3.org/2000/svg">
<g clip-path="url(#clip0_1_688)">
<path d="M15.1288 12.2327C15.1288 14.0858 13.9624 15.5879 12.3615 16.4702C7.80088 16.1578 4.95332 10.0506 8.93359 2.42491C9.16364 3.03624 9.50469 3.62644 9.98792 4.17911C12.3659 6.69519 15.115 8.92892 15.1288 12.2327Z" fill="#FD7A6E"/>
<path d="M12.3615 16.4702C11.3578 17.0235 10.1831 17.3333 9.01807 17.3333C3.54222 17.2817 1.48119 12.9839 3.82793 7.94272C4.12237 7.30994 4.19649 6.46821 3.95134 5.59298C3.86784 5.29418 4.20218 5.05275 4.4597 5.22511C5.01302 5.59601 5.48386 5.97928 5.85775 6.44308C6.05694 6.69057 6.45668 6.55174 6.45365 6.2338C6.43086 3.84448 7.18539 2.03631 7.96973 0.820682C8.14007 0.556424 8.54619 0.650662 8.5834 0.962869C8.64242 1.45782 8.75407 1.94777 8.9335 2.42498C6.11794 10.0254 9.02311 15.4125 12.3615 16.4702Z" fill="#FB695B"/>
<path d="M14.4581 6.2075C14.8285 6.2075 15.1288 5.90721 15.1288 5.53679C15.1288 5.16637 14.8285 4.86609 14.4581 4.86609C14.0877 4.86609 13.7874 5.16637 13.7874 5.53679C13.7874 5.90721 14.0877 6.2075 14.4581 6.2075Z" fill="#FD7A6E"/>
<path d="M11.7891 0.873539C11.7221 0.714945 11.5108 0.681644 11.3976 0.811332C10.9142 1.36494 10.4306 2.30062 11.0886 2.97758C11.3962 3.29401 12.0723 3.73161 12.4514 4.30879C12.5578 4.47071 12.7935 4.47204 12.9007 4.31071C14.3384 2.14818 12.3926 2.30134 11.7891 0.873539Z" fill="#FD7A6E"/>
<path d="M13.7874 12.2358C13.7133 13.231 13.3246 13.9986 12.7488 14.5728C8.64577 15.9165 4.37715 12.5227 7.26931 7.4574C7.28441 7.44298 7.29916 7.42856 7.31358 7.41346C7.62813 7.09555 7.79916 6.67202 7.79515 6.22097C7.78946 5.62908 7.83907 5.08113 7.9266 4.57846C7.97689 4.28972 8.35114 4.20118 8.52553 4.4366C10.4225 6.99565 13.887 9.22335 13.7874 12.2358Z" fill="#F9EE80"/>
<path d="M12.7488 14.5728C11.8162 15.503 10.3934 15.9269 9.02448 15.992C7.02953 15.9718 5.57109 15.3206 4.80651 14.1087C3.73223 12.5715 4.30267 10.215 5.18958 8.02419C5.25495 7.8627 5.43428 7.77751 5.6001 7.831C6.16768 8.0141 6.8347 7.87195 7.2693 7.45743C5.20452 12.4321 9.02197 15.1874 12.7488 14.5728Z" fill="#F9D171"/>
<path d="M4.92634 3.70431C4.11951 3.84656 3.41205 3.05154 3.74871 2.30183C3.98562 1.77423 4.32966 1.62898 4.21928 0.859092C4.1977 0.708636 4.36973 0.60945 4.4894 0.703167C5.16544 1.23263 5.67589 1.84646 5.76534 2.4616C5.85606 2.98826 5.58738 3.58777 4.92634 3.70431Z" fill="#FB695B"/>
<path d="M6.31205 13.3944C6.86426 13.3944 7.31192 13.0379 7.31192 12.5982C7.31192 12.1584 6.86426 11.8019 6.31205 11.8019C5.75984 11.8019 5.31218 12.1584 5.31218 12.5982C5.31218 13.0379 5.75984 13.3944 6.31205 13.3944Z" fill="#FFA1AC"/>
<path d="M11.7317 13.3944C12.284 13.3944 12.7316 13.0379 12.7316 12.5982C12.7316 12.1584 12.284 11.8019 11.7317 11.8019C11.1795 11.8019 10.7319 12.1584 10.7319 12.5982C10.7319 13.0379 11.1795 13.3944 11.7317 13.3944Z" fill="#FFA1AC"/>
<path d="M7.28887 11.1705C7.27435 11.1705 7.25971 11.1693 7.24489 11.1667L6.5365 11.0418C6.39971 11.0177 6.30837 10.8872 6.33249 10.7504C6.35661 10.6136 6.48702 10.5222 6.62387 10.5464L7.33226 10.6713C7.46905 10.6954 7.56039 10.8258 7.53627 10.9627C7.51472 11.0847 7.40863 11.1705 7.28887 11.1705Z" fill="#666667"/>
<path d="M10.7549 11.1705C10.6352 11.1705 10.529 11.0847 10.5075 10.9627C10.4834 10.8259 10.5747 10.6954 10.7115 10.6713L11.42 10.5464C11.5571 10.5222 11.6872 10.6136 11.7113 10.7504C11.7355 10.8872 11.6441 11.0177 11.5073 11.0418L10.7989 11.1667C10.7841 11.1693 10.7694 11.1705 10.7549 11.1705Z" fill="#666667"/>
<path d="M9.99144 11.6396C9.85251 11.6396 9.73995 11.7522 9.73995 11.8911C9.73995 12.0197 9.63532 12.1243 9.50668 12.1243C9.37807 12.1243 9.27344 12.0197 9.27344 11.8911C9.27344 11.7522 9.16085 11.6396 9.02195 11.6396C8.88305 11.6396 8.77045 11.7522 8.77045 11.8911C8.77045 12.0197 8.66583 12.1243 8.53718 12.1243C8.40857 12.1243 8.30394 12.0197 8.30394 11.8911C8.30394 11.7522 8.19135 11.6396 8.05245 11.6396C7.91355 11.6396 7.80095 11.7522 7.80095 11.8911C7.80095 12.2971 8.13122 12.6273 8.53721 12.6273C8.72276 12.6273 8.89236 12.5582 9.02198 12.4445C9.1516 12.5582 9.3212 12.6273 9.50674 12.6273C9.91273 12.6273 10.243 12.2971 10.243 11.8911C10.2429 11.7522 10.1303 11.6396 9.99144 11.6396Z" fill="#666667"/>
<path d="M6.89479 12.08C6.75586 12.08 6.6433 11.9674 6.6433 11.8285V11.4261C6.6433 11.2872 6.75589 11.1746 6.89479 11.1746C7.03369 11.1746 7.14629 11.2872 7.14629 11.4261V11.8285C7.14629 11.9674 7.03372 12.08 6.89479 12.08Z" fill="#666667"/>
<path d="M11.149 12.08C11.0101 12.08 10.8975 11.9674 10.8975 11.8285V11.4261C10.8975 11.2872 11.0101 11.1746 11.149 11.1746C11.2879 11.1746 11.4005 11.2872 11.4005 11.4261V11.8285C11.4005 11.9674 11.288 12.08 11.149 12.08Z" fill="#666667"/>
</g>
<defs>
<clipPath id="clip0_1_688">
<rect width="16.6667" height="16.6667" fill="white" transform="translate(0.666672 0.666672)"/>
</clipPath>
</defs>
</svg>
