<svg width="18" height="18" viewBox="0 0 18 18" fill="none" xmlns="http://www.w3.org/2000/svg">
<path d="M16.9667 7.95L15.8333 6.63333C15.6167 6.38333 15.4417 5.91666 15.4417 5.58333V4.16666C15.4417 3.28333 14.7167 2.55833 13.8333 2.55833H12.4167C12.0917 2.55833 11.6167 2.38333 11.3667 2.16666L10.05 1.03333C9.475 0.541665 8.53334 0.541665 7.95 1.03333L6.64167 2.175C6.39167 2.38333 5.91667 2.55833 5.59167 2.55833H4.15C3.26667 2.55833 2.54167 3.28333 2.54167 4.16666V5.59166C2.54167 5.91666 2.36667 6.38333 2.15834 6.63333L1.03334 7.95833C0.550004 8.53333 0.550004 9.46666 1.03334 10.0417L2.15834 11.3667C2.36667 11.6167 2.54167 12.0833 2.54167 12.4083V13.8333C2.54167 14.7167 3.26667 15.4417 4.15 15.4417H5.59167C5.91667 15.4417 6.39167 15.6167 6.64167 15.8333L7.95834 16.9667C8.53334 17.4583 9.47501 17.4583 10.0583 16.9667L11.375 15.8333C11.625 15.6167 12.0917 15.4417 12.425 15.4417H13.8417C14.725 15.4417 15.45 14.7167 15.45 13.8333V12.4167C15.45 12.0917 15.625 11.6167 15.8417 11.3667L16.975 10.05C17.4583 9.475 17.4583 8.525 16.9667 7.95ZM12.4667 7.425L8.44167 11.45C8.325 11.5667 8.16667 11.6333 8 11.6333C7.83334 11.6333 7.675 11.5667 7.55834 11.45L5.54167 9.43333C5.3 9.19166 5.3 8.79166 5.54167 8.55C5.78334 8.30833 6.18334 8.30833 6.425 8.55L8 10.125L11.5833 6.54166C11.825 6.3 12.225 6.3 12.4667 6.54166C12.7083 6.78333 12.7083 7.18333 12.4667 7.425Z" fill="#37AAF2"/>
</svg>
