<svg width="40" height="41" viewBox="0 0 40 41" fill="none" xmlns="http://www.w3.org/2000/svg">
<rect y="0.5" width="40" height="40" rx="20" fill="url(#paint0_linear_1_711)"/>
<path d="M24.19 10.5H15.81C12.17 10.5 10 12.67 10 16.31V24.68C10 28.33 12.17 30.5 15.81 30.5H24.18C27.82 30.5 29.99 28.33 29.99 24.69V16.31C30 12.67 27.83 10.5 24.19 10.5ZM14.75 22.64C14.75 23.05 14.41 23.39 14 23.39C13.59 23.39 13.25 23.05 13.25 22.64V18.36C13.25 17.95 13.59 17.61 14 17.61C14.41 17.61 14.75 17.95 14.75 18.36V22.64ZM17.75 24.07C17.75 24.48 17.41 24.82 17 24.82C16.59 24.82 16.25 24.48 16.25 24.07V16.93C16.25 16.52 16.59 16.18 17 16.18C17.41 16.18 17.75 16.52 17.75 16.93V24.07ZM20.75 25.5C20.75 25.91 20.41 26.25 20 26.25C19.59 26.25 19.25 25.91 19.25 25.5V15.5C19.25 15.09 19.59 14.75 20 14.75C20.41 14.75 20.75 15.09 20.75 15.5V25.5ZM23.75 24.07C23.75 24.48 23.41 24.82 23 24.82C22.59 24.82 22.25 24.48 22.25 24.07V16.93C22.25 16.52 22.59 16.18 23 16.18C23.41 16.18 23.75 16.52 23.75 16.93V24.07ZM26.75 22.64C26.75 23.05 26.41 23.39 26 23.39C25.59 23.39 25.25 23.05 25.25 22.64V18.36C25.25 17.95 25.59 17.61 26 17.61C26.41 17.61 26.75 17.95 26.75 18.36V22.64Z" fill="white"/>
<defs>
<linearGradient id="paint0_linear_1_711" x1="21.4118" y1="-18.3473" x2="-16.2828" y2="18.8292" gradientUnits="userSpaceOnUse">
<stop stop-color="#FFCBA0"/>
<stop offset="0.51418" stop-color="#DD5789"/>
<stop offset="1" stop-color="#9B5BE6"/>
</linearGradient>
</defs>
</svg>
